<svg width="315" height="184" viewBox="0 0 315 184" fill="none" xmlns="http://www.w3.org/2000/svg">
<rect width="315" height="184" rx="30" fill="url(#paint0_linear_12_0)"/>
<mask id="mask0_12_0" style="mask-type:alpha" maskUnits="userSpaceOnUse" x="0" y="0" width="315" height="184">
<rect width="315" height="184" rx="30" fill="#ED713C"/>
</mask>
<g mask="url(#mask0_12_0)">
<ellipse opacity="0.1" cx="24.5" cy="213" rx="160.5" ry="113" fill="black"/>
<ellipse opacity="0.08" cx="290.5" cy="-29" rx="160.5" ry="113" fill="black"/>
</g>
<path d="M244.629 154.296C244.629 157.026 245.791 159.154 248.157 159.154C250.537 159.154 251.671 157.026 251.671 154.296C251.671 152.882 251.377 151.748 250.775 150.894C250.187 150.04 249.319 149.606 248.157 149.606C246.995 149.606 246.127 150.04 245.525 150.908C244.923 151.762 244.629 152.896 244.629 154.296ZM250.131 154.31C250.131 156.494 249.515 157.796 248.157 157.796C246.799 157.796 246.169 156.494 246.169 154.31C246.169 152.084 246.827 150.964 248.157 150.964C249.473 150.964 250.131 152.084 250.131 154.31ZM260.193 152.812C260.235 150.992 258.681 149.578 256.931 149.606C255.167 149.606 253.655 150.992 253.655 152.798C253.655 154.548 255.097 155.892 256.679 155.892C256.833 155.892 256.959 155.878 257.085 155.85L254.859 159H256.623L258.919 155.738C259.241 155.29 259.479 154.94 259.633 154.688C259.787 154.422 259.927 154.142 260.025 153.834C260.137 153.512 260.193 153.176 260.193 152.812ZM258.723 152.798C258.723 153.316 258.555 153.75 258.205 154.1C257.855 154.45 257.435 154.632 256.931 154.632C256.413 154.632 255.979 154.464 255.629 154.114C255.279 153.764 255.111 153.316 255.111 152.798C255.111 152.28 255.279 151.846 255.629 151.496C255.979 151.146 256.413 150.964 256.931 150.964C257.435 150.964 257.855 151.146 258.205 151.496C258.555 151.846 258.723 152.28 258.723 152.798ZM259.693 160.694H261.331L268.653 148.08H267.015L259.693 160.694ZM272.028 157.712L273.652 155.99C274.296 155.304 274.786 154.716 275.108 154.198C275.444 153.68 275.612 153.106 275.612 152.476C275.612 150.852 274.31 149.606 272.546 149.606C270.656 149.606 269.438 151.048 269.438 152.56C269.438 152.84 269.466 153.106 269.536 153.358H271.034C270.992 153.078 270.964 152.84 270.964 152.644C270.964 151.692 271.594 150.964 272.532 150.964C273.47 150.964 274.072 151.65 274.072 152.588C274.072 153.372 273.624 154.044 272.602 155.122L269.312 158.664V159H275.934V157.712H272.028ZM284.32 156.018C284.32 154.156 282.822 153.134 281.17 153.134C280.75 153.134 280.358 153.176 279.994 153.26V151.09H283.802V149.76H278.538V154.408H280.666C282.024 154.408 282.794 154.996 282.794 156.046C282.794 157.11 281.982 157.796 280.876 157.796C279.882 157.796 279.196 157.278 278.636 156.424L277.6 157.166C278.23 158.356 279.392 159.154 280.918 159.154C282.752 159.154 284.32 157.88 284.32 156.018Z" fill="white"/>
<path opacity="0.9" d="M37.14 156.018C37.14 154.156 35.642 153.134 33.99 153.134C33.57 153.134 33.178 153.176 32.814 153.26V151.09H36.622V149.76H31.358V154.408H33.486C34.844 154.408 35.614 154.996 35.614 156.046C35.614 157.11 34.802 157.796 33.696 157.796C32.702 157.796 32.016 157.278 31.456 156.424L30.42 157.166C31.05 158.356 32.212 159.154 33.738 159.154C35.572 159.154 37.14 157.88 37.14 156.018ZM41.6803 157.712L43.3043 155.99C43.9483 155.304 44.4383 154.716 44.7603 154.198C45.0963 153.68 45.2643 153.106 45.2643 152.476C45.2643 150.852 43.9623 149.606 42.1983 149.606C40.3083 149.606 39.0903 151.048 39.0903 152.56C39.0903 152.84 39.1183 153.106 39.1883 153.358H40.6863C40.6443 153.078 40.6163 152.84 40.6163 152.644C40.6163 151.692 41.2463 150.964 42.1843 150.964C43.1223 150.964 43.7243 151.65 43.7243 152.588C43.7243 153.372 43.2763 154.044 42.2543 155.122L38.9643 158.664V159H45.5863V157.712H41.6803ZM54.266 156.592C54.266 155.416 53.482 154.646 52.264 154.198C53.286 153.652 53.832 152.938 53.832 151.972C53.832 151.23 53.552 150.642 53.006 150.236C52.46 149.816 51.76 149.606 50.92 149.606C50.066 149.606 49.366 149.816 48.806 150.236C48.26 150.642 47.98 151.23 47.98 151.972C47.98 152.966 48.54 153.652 49.548 154.198C48.316 154.646 47.546 155.416 47.546 156.592C47.546 158.146 48.932 159.154 50.92 159.154C52.894 159.154 54.266 158.146 54.266 156.592ZM49.394 152.028C49.394 151.286 50.024 150.824 50.92 150.824C51.802 150.824 52.418 151.286 52.418 152.028C52.418 152.714 51.956 153.078 50.906 153.526C49.856 153.064 49.394 152.7 49.394 152.028ZM52.768 156.536C52.768 157.376 52.11 157.922 50.92 157.922C49.73 157.922 49.044 157.376 49.044 156.536C49.044 155.71 49.674 155.276 50.906 154.842C52.138 155.29 52.768 155.696 52.768 156.536ZM58.8541 157.712L60.4781 155.99C61.1221 155.304 61.6121 154.716 61.9341 154.198C62.2701 153.68 62.4381 153.106 62.4381 152.476C62.4381 150.852 61.1361 149.606 59.3721 149.606C57.4821 149.606 56.2641 151.048 56.2641 152.56C56.2641 152.84 56.2921 153.106 56.3621 153.358H57.8601C57.8181 153.078 57.7901 152.84 57.7901 152.644C57.7901 151.692 58.4201 150.964 59.3581 150.964C60.2961 150.964 60.8981 151.65 60.8981 152.588C60.8981 153.372 60.4501 154.044 59.4281 155.122L56.1381 158.664V159H62.7601V157.712H58.8541ZM75.3457 156.032C75.3457 155.234 75.1077 154.59 74.6317 154.1C74.1557 153.61 73.5817 153.302 72.8957 153.19L75.1357 150.166V149.76H69.3817V151.118H72.8257L70.6697 154.016V154.422H71.6917C73.0497 154.422 73.8197 154.996 73.8197 156.046C73.8197 157.096 73.0357 157.796 71.9297 157.796C70.9777 157.796 70.3197 157.278 69.7597 156.424L68.7237 157.152C69.3397 158.342 70.4737 159.154 71.9717 159.154C73.7917 159.154 75.3457 157.908 75.3457 156.032ZM84.1473 156.116H82.8873V153.274H81.4033V156.116H78.6453L81.2633 149.76H79.7373L76.7833 156.984V157.39H81.4033V159H82.8873V157.39H84.1473V156.116ZM92.0326 156.018C92.0326 154.156 90.5346 153.134 88.8826 153.134C88.4626 153.134 88.0706 153.176 87.7066 153.26V151.09H91.5146V149.76H86.2506V154.408H88.3786C89.7366 154.408 90.5066 154.996 90.5066 156.046C90.5066 157.11 89.6946 157.796 88.5886 157.796C87.5946 157.796 86.9086 157.278 86.3486 156.424L85.3126 157.166C85.9426 158.356 87.1046 159.154 88.6306 159.154C90.4646 159.154 92.0326 157.88 92.0326 156.018ZM100.381 155.962C100.381 154.212 98.9529 152.868 97.3429 152.868C97.1889 152.868 97.0629 152.882 96.9369 152.91L99.1629 149.76H97.4129L95.1029 153.022C94.7809 153.484 94.5429 153.834 94.3889 154.086C94.2349 154.338 94.1089 154.618 93.9969 154.94C93.8989 155.248 93.8429 155.584 93.8429 155.948C93.8009 157.768 95.3549 159.182 97.1049 159.154C98.8689 159.154 100.381 157.768 100.381 155.962ZM98.9109 155.962C98.9109 156.48 98.7289 156.928 98.3789 157.278C98.0289 157.628 97.6089 157.796 97.1049 157.796C96.5869 157.796 96.1669 157.628 95.8169 157.278C95.4669 156.928 95.2989 156.48 95.2989 155.962C95.2989 155.444 95.4669 155.01 95.8169 154.66C96.1669 154.31 96.5869 154.128 97.1049 154.128C97.6089 154.128 98.0289 154.31 98.3789 154.66C98.7289 155.01 98.9109 155.444 98.9109 155.962ZM106.42 149.76V151.09H110.76L106.686 159H108.296L112.762 150.166V149.76H106.42ZM120.604 156.592C120.604 155.416 119.82 154.646 118.602 154.198C119.624 153.652 120.17 152.938 120.17 151.972C120.17 151.23 119.89 150.642 119.344 150.236C118.798 149.816 118.098 149.606 117.258 149.606C116.404 149.606 115.704 149.816 115.144 150.236C114.598 150.642 114.318 151.23 114.318 151.972C114.318 152.966 114.878 153.652 115.886 154.198C114.654 154.646 113.884 155.416 113.884 156.592C113.884 158.146 115.27 159.154 117.258 159.154C119.232 159.154 120.604 158.146 120.604 156.592ZM115.732 152.028C115.732 151.286 116.362 150.824 117.258 150.824C118.14 150.824 118.756 151.286 118.756 152.028C118.756 152.714 118.294 153.078 117.244 153.526C116.194 153.064 115.732 152.7 115.732 152.028ZM119.106 156.536C119.106 157.376 118.448 157.922 117.258 157.922C116.068 157.922 115.382 157.376 115.382 156.536C115.382 155.71 116.012 155.276 117.244 154.842C118.476 155.29 119.106 155.696 119.106 156.536ZM129 152.812C129.042 150.992 127.488 149.578 125.738 149.606C123.974 149.606 122.462 150.992 122.462 152.798C122.462 154.548 123.904 155.892 125.486 155.892C125.64 155.892 125.766 155.878 125.892 155.85L123.666 159H125.43L127.726 155.738C128.048 155.29 128.286 154.94 128.44 154.688C128.594 154.422 128.734 154.142 128.832 153.834C128.944 153.512 129 153.176 129 152.812ZM127.53 152.798C127.53 153.316 127.362 153.75 127.012 154.1C126.662 154.45 126.242 154.632 125.738 154.632C125.22 154.632 124.786 154.464 124.436 154.114C124.086 153.764 123.918 153.316 123.918 152.798C123.918 152.28 124.086 151.846 124.436 151.496C124.786 151.146 125.22 150.964 125.738 150.964C126.242 150.964 126.662 151.146 127.012 151.496C127.362 151.846 127.53 152.28 127.53 152.798ZM130.965 154.296C130.965 157.026 132.127 159.154 134.493 159.154C136.873 159.154 138.007 157.026 138.007 154.296C138.007 152.882 137.713 151.748 137.111 150.894C136.523 150.04 135.655 149.606 134.493 149.606C133.331 149.606 132.463 150.04 131.861 150.908C131.259 151.762 130.965 152.896 130.965 154.296ZM136.467 154.31C136.467 156.494 135.851 157.796 134.493 157.796C133.135 157.796 132.505 156.494 132.505 154.31C132.505 152.084 133.163 150.964 134.493 150.964C135.809 150.964 136.467 152.084 136.467 154.31ZM147.327 149.76L144.121 150.81L144.485 152.112L146.361 151.51V159H147.845V149.76H147.327ZM153.1 157.712L154.724 155.99C155.368 155.304 155.858 154.716 156.18 154.198C156.516 153.68 156.684 153.106 156.684 152.476C156.684 150.852 155.382 149.606 153.618 149.606C151.728 149.606 150.51 151.048 150.51 152.56C150.51 152.84 150.538 153.106 150.608 153.358H152.106C152.064 153.078 152.036 152.84 152.036 152.644C152.036 151.692 152.666 150.964 153.604 150.964C154.542 150.964 155.144 151.65 155.144 152.588C155.144 153.372 154.696 154.044 153.674 155.122L150.384 158.664V159H157.006V157.712H153.1ZM165.686 156.592C165.686 155.416 164.902 154.646 163.684 154.198C164.706 153.652 165.252 152.938 165.252 151.972C165.252 151.23 164.972 150.642 164.426 150.236C163.88 149.816 163.18 149.606 162.34 149.606C161.486 149.606 160.786 149.816 160.226 150.236C159.68 150.642 159.4 151.23 159.4 151.972C159.4 152.966 159.96 153.652 160.968 154.198C159.736 154.646 158.966 155.416 158.966 156.592C158.966 158.146 160.352 159.154 162.34 159.154C164.314 159.154 165.686 158.146 165.686 156.592ZM160.814 152.028C160.814 151.286 161.444 150.824 162.34 150.824C163.222 150.824 163.838 151.286 163.838 152.028C163.838 152.714 163.376 153.078 162.326 153.526C161.276 153.064 160.814 152.7 160.814 152.028ZM164.188 156.536C164.188 157.376 163.53 157.922 162.34 157.922C161.15 157.922 160.464 157.376 160.464 156.536C160.464 155.71 161.094 155.276 162.326 154.842C163.558 155.29 164.188 155.696 164.188 156.536ZM174.082 152.812C174.124 150.992 172.57 149.578 170.82 149.606C169.056 149.606 167.544 150.992 167.544 152.798C167.544 154.548 168.986 155.892 170.568 155.892C170.722 155.892 170.848 155.878 170.974 155.85L168.748 159H170.512L172.808 155.738C173.13 155.29 173.368 154.94 173.522 154.688C173.676 154.422 173.816 154.142 173.914 153.834C174.026 153.512 174.082 153.176 174.082 152.812ZM172.612 152.798C172.612 153.316 172.444 153.75 172.094 154.1C171.744 154.45 171.324 154.632 170.82 154.632C170.302 154.632 169.868 154.464 169.518 154.114C169.168 153.764 169 153.316 169 152.798C169 152.28 169.168 151.846 169.518 151.496C169.868 151.146 170.302 150.964 170.82 150.964C171.324 150.964 171.744 151.146 172.094 151.496C172.444 151.846 172.612 152.28 172.612 152.798Z" fill="white"/>
<path d="M256.416 27.9742H268.584V49.8367H256.416V27.9742Z" fill="#FF5F00"/>
<path d="M248.189 60.8409V58.5234C248.189 57.6348 247.648 57.0556 246.721 57.0556C246.258 57.0556 245.756 57.2101 245.408 57.7123C245.138 57.2873 244.751 57.0556 244.172 57.0556C243.786 57.0556 243.4 57.1714 243.09 57.5963V57.1328H242.279V60.8409H243.09V58.7937C243.09 58.1372 243.438 57.828 243.979 57.828C244.52 57.828 244.79 58.1757 244.79 58.7937V60.8409H245.601V58.7937C245.601 58.1372 245.987 57.828 246.49 57.828C247.03 57.828 247.301 58.1757 247.301 58.7937V60.8409H248.189ZM260.202 57.1328H258.889V56.0127H258.078V57.1328H257.344V57.8666H258.077V59.5663C258.077 60.4162 258.425 60.9182 259.352 60.9182C259.7 60.9182 260.086 60.8024 260.357 60.6479L260.125 59.9525C259.893 60.107 259.623 60.1457 259.429 60.1457C259.043 60.1457 258.889 59.914 258.889 59.5276V57.8666H260.202V57.1328ZM267.077 57.0554C266.614 57.0554 266.305 57.2873 266.112 57.5963V57.1328H265.301V60.8409H266.112V58.7551C266.112 58.1372 266.382 57.7895 266.884 57.7895C267.039 57.7895 267.232 57.8282 267.386 57.8668L267.618 57.0943C267.464 57.0556 267.232 57.0556 267.077 57.0556V57.0554ZM256.687 57.4418C256.301 57.1714 255.76 57.0556 255.18 57.0556C254.254 57.0556 253.636 57.5191 253.636 58.253C253.636 58.8711 254.099 59.2186 254.91 59.3346L255.296 59.3733C255.721 59.4503 255.953 59.5663 255.953 59.7595C255.953 60.0298 255.644 60.223 255.103 60.223C254.562 60.223 254.138 60.0298 253.867 59.8367L253.481 60.4547C253.906 60.7637 254.485 60.9182 255.064 60.9182C256.146 60.9182 256.764 60.4162 256.764 59.7208C256.764 59.0641 256.262 58.7164 255.489 58.6007L255.103 58.562C254.756 58.5232 254.485 58.4462 254.485 58.2144C254.485 57.944 254.756 57.7895 255.18 57.7895C255.644 57.7895 256.108 57.9825 256.339 58.0985L256.687 57.4418ZM278.241 57.0556C277.777 57.0556 277.468 57.2873 277.275 57.5963V57.1328H276.464V60.8409H277.275V58.7551C277.275 58.1372 277.545 57.7895 278.047 57.7895C278.202 57.7895 278.395 57.8282 278.549 57.8668L278.781 57.0943C278.627 57.0556 278.395 57.0556 278.241 57.0556ZM267.889 58.9869C267.889 60.107 268.661 60.9182 269.859 60.9182C270.399 60.9182 270.785 60.8024 271.172 60.4934L270.785 59.8367C270.477 60.0685 270.168 60.1843 269.82 60.1843C269.163 60.1843 268.7 59.7208 268.7 58.9869C268.7 58.2917 269.163 57.828 269.82 57.7895C270.168 57.7895 270.477 57.9053 270.785 58.1372L271.172 57.4805C270.785 57.1714 270.399 57.0556 269.859 57.0556C268.661 57.0556 267.889 57.8668 267.889 58.9869ZM275.382 58.9869V57.1328H274.571V57.5963C274.301 57.2488 273.914 57.0556 273.412 57.0556C272.369 57.0556 271.558 57.8668 271.558 58.9869C271.558 60.107 272.369 60.9182 273.412 60.9182C273.953 60.9182 274.339 60.7251 274.571 60.3774V60.8409H275.382V58.9869ZM272.408 58.9869C272.408 58.3302 272.833 57.7895 273.528 57.7895C274.185 57.7895 274.648 58.2917 274.648 58.9869C274.648 59.6435 274.185 60.1843 273.528 60.1843C272.833 60.1455 272.408 59.6435 272.408 58.9869ZM262.713 57.0556C261.631 57.0556 260.858 57.828 260.858 58.9869C260.858 60.1457 261.631 60.9182 262.751 60.9182C263.292 60.9182 263.833 60.7637 264.258 60.4162L263.871 59.8367C263.562 60.0685 263.176 60.223 262.79 60.223C262.288 60.223 261.786 59.9912 261.67 59.3344H264.412V59.0256C264.451 57.828 263.756 57.0556 262.713 57.0556H262.713ZM262.713 57.7508C263.215 57.7508 263.563 58.06 263.64 58.6394H261.708C261.786 58.1372 262.133 57.7508 262.713 57.7508ZM282.837 58.9869V55.665H282.026V57.5963C281.755 57.2488 281.369 57.0556 280.867 57.0556C279.824 57.0556 279.013 57.8668 279.013 58.9869C279.013 60.107 279.824 60.9182 280.867 60.9182C281.408 60.9182 281.794 60.7251 282.026 60.3774V60.8409H282.837V58.9869ZM279.863 58.9869C279.863 58.3302 280.288 57.7895 280.983 57.7895C281.64 57.7895 282.103 58.2917 282.103 58.9869C282.103 59.6435 281.64 60.1843 280.983 60.1843C280.288 60.1455 279.863 59.6435 279.863 58.9869ZM252.747 58.9869V57.1328H251.936V57.5963C251.665 57.2488 251.279 57.0556 250.777 57.0556C249.734 57.0556 248.923 57.8668 248.923 58.9869C248.923 60.107 249.734 60.9182 250.777 60.9182C251.318 60.9182 251.704 60.7251 251.936 60.3774V60.8409H252.747V58.9869ZM249.734 58.9869C249.734 58.3302 250.159 57.7895 250.854 57.7895C251.511 57.7895 251.975 58.2917 251.975 58.9869C251.975 59.6435 251.511 60.1843 250.854 60.1843C250.159 60.1455 249.734 59.6435 249.734 58.9869Z" fill="white"/>
<path d="M257.189 38.9055C257.189 34.4635 259.275 30.5236 262.48 27.9742C260.124 26.1201 257.15 25 253.906 25C246.219 25 240 31.2188 240 38.9055C240 46.5921 246.219 52.811 253.906 52.811C257.15 52.811 260.124 51.6909 262.48 49.8367C259.275 47.326 257.189 43.3475 257.189 38.9055Z" fill="#EB001B"/>
<path d="M285 38.9055C285 46.5921 278.781 52.811 271.094 52.811C267.849 52.811 264.875 51.6909 262.519 49.8367C265.764 47.2874 267.811 43.3475 267.811 38.9055C267.811 34.4635 265.725 30.5236 262.519 27.9742C264.875 26.1201 267.849 25 271.094 25C278.781 25 285 31.2575 285 38.9055H285Z" fill="#F79E1B"/>
<path d="M38.848 77.328C41.62 76.908 43.524 75.172 43.524 72.596C43.524 70.356 42.068 68.844 39.352 67.808L37.28 67.024C35.74 66.352 35.04 65.82 35.04 64.728C35.04 63.468 36.188 62.852 37.616 62.852C39.072 62.852 40.108 63.496 41.088 64.924L43.104 63.412C42.124 61.676 40.696 60.64 38.848 60.304V57.028H36.132V60.36C33.752 60.836 32.1 62.488 32.1 64.756C32.1 66.8 33.444 68.368 36.16 69.432L38.092 70.188C39.8 70.944 40.584 71.532 40.584 72.652C40.584 73.996 39.352 74.808 37.644 74.808C35.768 74.808 34.256 73.856 33.052 71.98L31.008 73.492C32.128 75.508 33.892 76.852 36.132 77.272V80.66H38.848V77.328ZM59.3191 72.036C59.3191 68.312 56.3231 66.268 53.0191 66.268C52.1791 66.268 51.3951 66.352 50.6671 66.52V62.18H58.2831V59.52H47.7551V68.816H52.0111C54.7271 68.816 56.2671 69.992 56.2671 72.092C56.2671 74.22 54.6431 75.592 52.4311 75.592C50.4431 75.592 49.0711 74.556 47.9511 72.848L45.8791 74.332C47.1391 76.712 49.4631 78.308 52.5151 78.308C56.1831 78.308 59.3191 75.76 59.3191 72.036ZM62.8357 82.984H65.2157L66.5317 75.032H63.1157L62.8357 82.984ZM69.2619 59.52V62.18H77.9419L69.7939 78H73.0139L81.9459 60.332V59.52H69.2619ZM96.8894 72.036C96.8894 68.312 93.8934 66.268 90.5894 66.268C89.7494 66.268 88.9654 66.352 88.2374 66.52V62.18H95.8534V59.52H85.3254V68.816H89.5814C92.2974 68.816 93.8374 69.992 93.8374 72.092C93.8374 74.22 92.2134 75.592 90.0014 75.592C88.0134 75.592 86.6414 74.556 85.5214 72.848L83.4494 74.332C84.7094 76.712 87.0334 78.308 90.0854 78.308C93.7534 78.308 96.8894 75.76 96.8894 72.036ZM99.958 68.592C99.958 74.052 102.282 78.308 107.014 78.308C111.774 78.308 114.042 74.052 114.042 68.592C114.042 65.764 113.454 63.496 112.25 61.788C111.074 60.08 109.338 59.212 107.014 59.212C104.69 59.212 102.954 60.08 101.75 61.816C100.546 63.524 99.958 65.792 99.958 68.592ZM110.962 68.62C110.962 72.988 109.73 75.592 107.014 75.592C104.298 75.592 103.038 72.988 103.038 68.62C103.038 64.168 104.354 61.928 107.014 61.928C109.646 61.928 110.962 64.168 110.962 68.62ZM117.633 82.984H120.013L121.329 75.032H117.913L117.633 82.984ZM130.044 75.424L133.292 71.98C134.58 70.608 135.56 69.432 136.204 68.396C136.876 67.36 137.212 66.212 137.212 64.952C137.212 61.704 134.608 59.212 131.08 59.212C127.3 59.212 124.864 62.096 124.864 65.12C124.864 65.68 124.92 66.212 125.06 66.716H128.056C127.972 66.156 127.916 65.68 127.916 65.288C127.916 63.384 129.176 61.928 131.052 61.928C132.928 61.928 134.132 63.3 134.132 65.176C134.132 66.744 133.236 68.088 131.192 70.244L124.612 77.328V78H137.856V75.424H130.044ZM141.056 68.592C141.056 74.052 143.38 78.308 148.112 78.308C152.872 78.308 155.14 74.052 155.14 68.592C155.14 65.764 154.552 63.496 153.348 61.788C152.172 60.08 150.436 59.212 148.112 59.212C145.788 59.212 144.052 60.08 142.848 61.816C141.644 63.524 141.056 65.792 141.056 68.592ZM152.06 68.62C152.06 72.988 150.828 75.592 148.112 75.592C145.396 75.592 144.136 72.988 144.136 68.62C144.136 64.168 145.452 61.928 148.112 61.928C150.744 61.928 152.06 64.168 152.06 68.62Z" fill="white"/>
<path opacity="0.54" d="M30.602 38.38C30.546 41.026 32.828 43.196 35.46 43.154C37.182 43.154 38.638 42.328 39.422 41.026L38.302 40.2C37.644 41.222 36.692 41.796 35.474 41.796C33.584 41.796 32.142 40.34 32.142 38.38C32.142 36.42 33.584 34.964 35.474 34.964C36.692 34.964 37.644 35.538 38.302 36.56L39.422 35.734C38.624 34.432 37.154 33.606 35.46 33.606C32.828 33.564 30.546 35.734 30.602 38.38ZM41.0292 40.116C41.0292 41.964 42.3172 43.154 44.0392 43.154C45.7192 43.154 47.0212 41.964 47.0212 40.116V36.126H45.5512V40.228C45.5512 41.18 44.8932 41.796 44.0392 41.796C43.1432 41.796 42.4852 41.18 42.4852 40.228V36.126H41.0292V40.116ZM53.0175 36.126C52.8495 36.084 52.6675 36.056 52.4575 36.056C51.6735 36.056 50.9455 36.406 50.4555 37.022V36.126H49.0835V43H50.5535V39.332C50.5535 38.114 51.4075 37.428 52.5695 37.428H53.0175V36.126ZM58.2675 36.126C58.0995 36.084 57.9175 36.056 57.7075 36.056C56.9235 36.056 56.1955 36.406 55.7055 37.022V36.126H54.3335V43H55.8035V39.332C55.8035 38.114 56.6575 37.428 57.8195 37.428H58.2675V36.126ZM65.6348 40.046C65.7048 39.724 65.7468 39.416 65.7468 39.122C65.7468 37.33 64.3888 35.972 62.5688 35.972C60.6228 35.93 58.9708 37.596 59.0128 39.57C59.0128 41.6 60.6088 43.154 62.7088 43.154C63.7588 43.154 64.6688 42.79 65.4528 42.048L64.7528 41.04C64.1368 41.586 63.4648 41.852 62.7508 41.852C61.5748 41.852 60.6928 41.166 60.5108 40.046H65.6348ZM60.5388 38.898C60.7628 37.876 61.5468 37.218 62.5128 37.218C63.4788 37.218 64.2628 37.848 64.2768 38.898H60.5388ZM73.4372 38.702C73.4372 37.064 72.4712 35.972 70.8612 35.972C70.0072 35.972 69.3212 36.252 68.8032 36.798V36.126H67.4312V43H68.9012V38.898C68.9012 37.96 69.5592 37.302 70.4692 37.302C71.3652 37.302 71.9672 37.946 71.9672 38.898V43H73.4372V38.702ZM79.5719 41.754C79.1659 41.796 78.8719 41.824 78.6619 41.824C77.7659 41.824 77.3039 41.516 77.3039 40.634V37.4H79.3479V36.126H77.3039V34.32H75.8199V36.126H74.6999V37.4H75.8199V40.76C75.8199 42.37 76.7719 43.154 78.3539 43.154C78.7039 43.154 79.1099 43.098 79.5719 43V41.754ZM92.0419 40.312C92.0419 39.178 91.3979 38.31 90.3199 37.96C90.8239 37.526 91.0899 36.938 91.0899 36.224C91.0899 34.796 89.9839 33.76 88.3179 33.76H85.0839V43H89.0459C90.8519 43 92.0419 41.866 92.0419 40.312ZM88.1779 35.062C89.0879 35.062 89.6059 35.524 89.6059 36.294C89.6059 37.064 89.0879 37.554 88.1779 37.554H86.5399V35.062H88.1779ZM90.5439 40.27C90.5439 41.152 89.9419 41.698 88.9199 41.698H86.5399V38.828H88.9199C89.9419 38.828 90.5439 39.388 90.5439 40.27ZM99.1002 38.842C99.1002 36.994 97.9802 35.972 96.2862 35.972C95.0962 35.972 94.0742 36.448 93.3882 37.442L94.2422 38.31C94.8162 37.624 95.3762 37.288 96.1462 37.288C97.0842 37.288 97.6162 37.806 97.6162 38.758V39.206H95.6702C94.1162 39.206 93.1362 39.976 93.1362 41.166C93.1362 42.356 94.0882 43.154 95.5302 43.154C96.4682 43.154 97.2242 42.832 97.7282 42.23V43H99.1002V38.842ZM97.6162 40.396C97.6162 41.334 96.8322 42.02 95.8382 42.02C95.1242 42.02 94.6342 41.684 94.6342 41.11C94.6342 40.55 95.0682 40.27 95.8522 40.27H97.6162V40.396ZM101.146 43H102.616V32.5H101.146V43ZM110.202 38.842C110.202 36.994 109.082 35.972 107.388 35.972C106.198 35.972 105.176 36.448 104.49 37.442L105.344 38.31C105.918 37.624 106.478 37.288 107.248 37.288C108.186 37.288 108.718 37.806 108.718 38.758V39.206H106.772C105.218 39.206 104.238 39.976 104.238 41.166C104.238 42.356 105.19 43.154 106.632 43.154C107.57 43.154 108.326 42.832 108.83 42.23V43H110.202V38.842ZM108.718 40.396C108.718 41.334 107.934 42.02 106.94 42.02C106.226 42.02 105.736 41.684 105.736 41.11C105.736 40.55 106.17 40.27 106.954 40.27H108.718V40.396ZM118.254 38.702C118.254 37.064 117.288 35.972 115.678 35.972C114.824 35.972 114.138 36.252 113.62 36.798V36.126H112.248V43H113.718V38.898C113.718 37.96 114.376 37.302 115.286 37.302C116.182 37.302 116.784 37.946 116.784 38.898V43H118.254V38.702ZM119.866 39.556C119.866 41.558 121.476 43.154 123.506 43.154C124.752 43.154 125.788 42.552 126.404 41.558L125.368 40.76C124.864 41.446 124.248 41.796 123.52 41.796C122.288 41.796 121.364 40.816 121.364 39.556C121.364 38.31 122.288 37.33 123.52 37.33C124.262 37.33 124.878 37.68 125.368 38.38L126.404 37.568C125.802 36.574 124.78 35.972 123.506 35.972C121.532 35.944 119.824 37.582 119.866 39.556ZM134.076 40.046C134.146 39.724 134.188 39.416 134.188 39.122C134.188 37.33 132.83 35.972 131.01 35.972C129.064 35.93 127.412 37.596 127.454 39.57C127.454 41.6 129.05 43.154 131.15 43.154C132.2 43.154 133.11 42.79 133.894 42.048L133.194 41.04C132.578 41.586 131.906 41.852 131.192 41.852C130.016 41.852 129.134 41.166 128.952 40.046H134.076ZM128.98 38.898C129.204 37.876 129.988 37.218 130.954 37.218C131.92 37.218 132.704 37.848 132.718 38.898H128.98Z" fill="white"/>
<defs>
<linearGradient id="paint0_linear_12_0" x1="158.586" y1="-30.5053" x2="165.299" y2="207.036" gradientUnits="userSpaceOnUse">
<stop stop-color="#9C2CF3"/>
<stop offset="1" stop-color="#3A49F9"/>
</linearGradient>
</defs>
</svg>